# xmcd
#
# Track frame offsets: 
#        150
#        19784
#        35725
#        43071
#        65959
#        81653
#        97856
#        121393
#        138913
#        156883
#        170673
#        191290
#
# Disc length: 2866 seconds
#
# Revision: 0
# Processed by: cddbd v1.5.2PL0 Copyright (c) Steve Scherf et al.
# Submitted via: ExactAudioCopy v0.99pb5
#
DISCID=a70b300c
DTITLE=Jesse Roper - Red Bird
DYEAR=2015
DGENRE=Blues
TTITLE0=Red Bird
TTITLE1=Chains of Love
TTITLE2=Little Gold Nugget
TTITLE3=Fool in Love
TTITLE4=Quality Time
TTITLE5=The Hurricanes Eye
TTITLE6=Any Time of Night
TTITLE7=Hideaway
TTITLE8=The Good Life
TTITLE9=Come From Nothing
TTITLE10=Apparition
TTITLE11=Journey Man
EXTD=
EXTT0=Red Bird
EXTT1=
EXTT2=
EXTT3=
EXTT4=
EXTT5=
EXTT6=
EXTT7=
EXTT8=
EXTT9=
EXTT10=
EXTT11=
PLAYORDER=
